<svg width="68" height="34" viewBox="0 0 68 34" fill="none" xmlns="http://www.w3.org/2000/svg">
<path id="API" fill-rule="evenodd" clip-rule="evenodd" d="M68 0H0V34H68V0ZM9.42614 31.3636H3L12.7915 3H20.5195L30.2972 31.3636H23.8711L21.7711 24.896H11.5302L9.42614 31.3636ZM16.7663 9.48153L20.2513 20.2148H13.053L16.5447 9.48153H16.7663ZM33.7111 31.3636V3H44.9015C47.0527 3 48.8855 3.41087 50.3997 4.2326C51.9139 5.0451 53.068 6.17614 53.862 7.62571C54.6653 9.06605 55.0669 10.728 55.0669 12.6115C55.0669 14.495 54.6607 16.157 53.8482 17.5973C53.0357 19.0376 51.8585 20.1594 50.3166 20.9627C48.7839 21.766 46.9281 22.1676 44.7491 22.1676H39.7079V31.3636H33.7111ZM43.7797 17.3619H39.7079V7.9027H43.752C44.9153 7.9027 45.8755 8.10121 46.6326 8.49822C47.3897 8.88601 47.9529 9.43537 48.3223 10.1463C48.7008 10.848 48.8901 11.6697 48.8901 12.6115C48.8901 13.544 48.7008 14.3704 48.3223 15.0906C47.9529 15.8015 47.3897 16.3601 46.6326 16.7663C45.8848 17.1634 44.9338 17.3619 43.7797 17.3619ZM64.9589 31.3636V3H58.9621V31.3636H64.9589Z" fill="#E51EFF"/>
</svg>
